# xmcd
#
# Track frame offsets:
#	182
#	10655
#	21897
#	32990
#	44087
#	56655
#	67412
#	78180
#	86280
#	97947
#	109017
#	117442
#	126032
#	137300
#	146687
#	156242
#	165940
#	177137
#
# Disc length: 2487 seconds
#
# Revision: 0
# Processed by: cddbd v1.4PL0 Copyright (c) Steve Scherf et al.
# Submitted via: dBpowerAMP V4.0
#
DISCID=e709b512
DTITLE=Paul Anka - Diana
DYEAR=1997
DGENRE=
TTITLE0=Diana
TTITLE1=You are my destiny
TTITLE2=Crazy love
TTITLE3=Lonel boy
TTITLE4=Puppy love
TTITLE5=I love you baby
TTITLE6=It's time to cry
TTITLE7=When i stop loving you
TTITLE8=Put your head on my shoulder
TTITLE9=It doesn't matter anymore
TTITLE10=Midnight
TTITLE11=Time to cry
TTITLE12=The longest day
TTITLE13=My home town
TTITLE14=Tonight my love, tonight
TTITLE15=I love you in the same old way
TTITLE16=I love in the same old way
TTITLE17=Cinderella
EXTD=
EXTT0=
EXTT1=
EXTT2=
EXTT3=
EXTT4=
EXTT5=
EXTT6=
EXTT7=
EXTT8=
EXTT9=
EXTT10=
EXTT11=
EXTT12=
EXTT13=
EXTT14=
EXTT15=
EXTT16=
EXTT17=
PLAYORDER=
